<svg viewBox="0 0 16 16" xmlns="http://www.w3.org/2000/svg"><g fill="#434343" fill-rule="evenodd" transform="translate(2)"><path d="m6 .031c-2.717 0-4.92 2.119-4.92 4.733 0 .675.15 1.317.414 1.898l4.59 7.321 4.422-7.321c.265-.581.412-1.224.412-1.898 0-2.614-2.201-4.733-4.918-4.733zm0 8.09c-1.705 0-3.085-1.387-3.085-3.098 0-1.709 1.38-3.097 3.085-3.097 1.703 0 3.086 1.388 3.086 3.097 0 1.711-1.383 3.098-3.086 3.098zm1.977-3.138c0 1.097-.886 1.985-1.978 1.985-1.091 0-1.977-.889-1.977-1.985 0-1.095.886-1.983 1.977-1.983 1.092 0 1.978.889 1.978 1.983z"/><path d="m3.29899999 11.8232422c-1.717.364-2.42924899.8417577-2.42924899 1.3787577 0 .769 1.830249 1.8290001 5.115249 1.8290001s5.1164406-1.0600001 5.1164406-1.8290001c0-.535-.7084406-.9987577-2.40144058-1.3787577l-.00000002-.8202422c1.865.366 3.254 1.101 3.254 2.199 0 1.584-3.07600014 2.7709004-5.96900014 2.7709004s-5.96899986-1.1869004-5.96899986-2.7709004c0-1.1 1.398-1.849 3.273-2.202z"/></g></svg>